<svg xmlns="http://www.w3.org/2000/svg" width="512" height="512" viewBox="0 0 512 512">
  <defs>
    <radialGradient id="bg" cx="38%" cy="32%" r="70%">
      <stop offset="0%" stop-color="#1a5240"/>
      <stop offset="100%" stop-color="#0b2419"/>
    </radialGradient>
    <radialGradient id="glow" cx="50%" cy="50%" r="50%">
      <stop offset="0%" stop-color="#4ade80" stop-opacity="0.15"/>
      <stop offset="100%" stop-color="#4ade80" stop-opacity="0"/>
    </radialGradient>
    <filter id="shadow" x="-5%" y="-5%" width="110%" height="110%">
      <feDropShadow dx="0" dy="2" stdDeviation="8" flood-color="#000000" flood-opacity="0.4"/>
    </filter>
  </defs>

  <!-- Background square -->
  <rect width="512" height="512" fill="#061210"/>

  <!-- Dark green circle -->
  <circle cx="256" cy="256" r="235" fill="url(#bg)"/>

  <!-- Subtle border ring -->
  <circle cx="256" cy="256" r="234" fill="none" stroke="#4ade80" stroke-opacity="0.18" stroke-width="1.5"/>

  <!-- Glow overlay -->
  <circle cx="256" cy="256" r="235" fill="url(#glow)"/>

  <!-- Flexibility lightning bolt — path scaled from 48×46 source (scale=6, offset=111,121) -->
  <path
    transform="translate(111,121) scale(6)"
    fill="white"
    filter="url(#shadow)"
    d="M25.946 44.938c-.664.845-2.021.375-2.021-.698V33.937a2.26 2.26 0 0 0-2.262-2.262H10.287c-.92 0-1.456-1.04-.92-1.788l7.48-10.471c1.07-1.497 0-3.578-1.842-3.578H1.237c-.92 0-1.456-1.04-.92-1.788L10.013.474c.214-.297.556-.474.92-.474h28.894c.92 0 1.456 1.04.92 1.788l-7.48 10.471c-1.07 1.498 0 3.579 1.842 3.579h11.377c.943 0 1.473 1.088.89 1.83L25.947 44.94z"
  />
</svg>
